%TF.GenerationSoftware,KiCad,Pcbnew,9.0.0*%
%TF.CreationDate,2025-06-27T10:04:16+02:00*%
%TF.ProjectId,print,7072696e-742e-46b6-9963-61645f706362,v1.1.0*%
%TF.SameCoordinates,Original*%
%TF.FileFunction,Soldermask,Bot*%
%TF.FilePolarity,Negative*%
%FSLAX46Y46*%
G04 Gerber Fmt 4.6, Leading zero omitted, Abs format (unit mm)*
G04 Created by KiCad (PCBNEW 9.0.0) date 2025-06-27 10:04:16*
%MOMM*%
%LPD*%
G01*
G04 APERTURE LIST*
G04 Aperture macros list*
%AMRoundRect*
0 Rectangle with rounded corners*
0 $1 Rounding radius*
0 $2 $3 $4 $5 $6 $7 $8 $9 X,Y pos of 4 corners*
0 Add a 4 corners polygon primitive as box body*
4,1,4,$2,$3,$4,$5,$6,$7,$8,$9,$2,$3,0*
0 Add four circle primitives for the rounded corners*
1,1,$1+$1,$2,$3*
1,1,$1+$1,$4,$5*
1,1,$1+$1,$6,$7*
1,1,$1+$1,$8,$9*
0 Add four rect primitives between the rounded corners*
20,1,$1+$1,$2,$3,$4,$5,0*
20,1,$1+$1,$4,$5,$6,$7,0*
20,1,$1+$1,$6,$7,$8,$9,0*
20,1,$1+$1,$8,$9,$2,$3,0*%
G04 Aperture macros list end*
%ADD10RoundRect,0.090000X0.660000X0.360000X-0.660000X0.360000X-0.660000X-0.360000X0.660000X-0.360000X0*%
%ADD11C,0.650000*%
%ADD12O,1.000000X2.100000*%
%ADD13O,1.000000X1.800000*%
%ADD14RoundRect,0.140000X-0.170000X0.140000X-0.170000X-0.140000X0.170000X-0.140000X0.170000X0.140000X0*%
%ADD15RoundRect,0.135000X0.185000X-0.135000X0.185000X0.135000X-0.185000X0.135000X-0.185000X-0.135000X0*%
%ADD16RoundRect,0.140000X0.170000X-0.140000X0.170000X0.140000X-0.170000X0.140000X-0.170000X-0.140000X0*%
%ADD17C,2.000000*%
G04 APERTURE END LIST*
D10*
%TO.C,D9*%
X8393600Y70518050D03*
X8393600Y67218050D03*
X3493600Y67218050D03*
X3493600Y70518050D03*
%TD*%
%TO.C,D8*%
X8393600Y62932100D03*
X8393600Y59632100D03*
X3493600Y59632100D03*
X3493600Y62932100D03*
%TD*%
%TO.C,D3*%
X8393600Y13486400D03*
X8393600Y10186400D03*
X3493600Y10186400D03*
X3493600Y13486400D03*
%TD*%
%TO.C,D6*%
X8393600Y36244250D03*
X8393600Y32944250D03*
X3493600Y32944250D03*
X3493600Y36244250D03*
%TD*%
%TO.C,D4*%
X8393600Y21072350D03*
X8393600Y17772350D03*
X3493600Y17772350D03*
X3493600Y21072350D03*
%TD*%
%TO.C,D7*%
X8393600Y55346150D03*
X8393600Y52046150D03*
X3493600Y52046150D03*
X3493600Y55346150D03*
%TD*%
%TO.C,D10*%
X8393600Y78104000D03*
X8393600Y74804000D03*
X3493600Y74804000D03*
X3493600Y78104000D03*
%TD*%
%TO.C,D5*%
X8393600Y28658300D03*
X8393600Y25358300D03*
X3493600Y25358300D03*
X3493600Y28658300D03*
%TD*%
D11*
%TO.C,J1*%
X3110000Y6364200D03*
X8890000Y6364200D03*
D12*
X1680000Y6864200D03*
D13*
X1680000Y2684200D03*
D12*
X10320000Y6864200D03*
D13*
X10320000Y2684200D03*
%TD*%
D14*
%TO.C,C9*%
X10007600Y36244250D03*
X10007600Y35284250D03*
%TD*%
%TO.C,C11*%
X10007600Y62890400D03*
X10007600Y61930400D03*
%TD*%
D15*
%TO.C,R5*%
X1574800Y12466400D03*
X1574800Y13486400D03*
%TD*%
D14*
%TO.C,C8*%
X10210800Y28658300D03*
X10210800Y27698300D03*
%TD*%
%TO.C,C6*%
X10210800Y13486400D03*
X10210800Y12526400D03*
%TD*%
%TO.C,C12*%
X10007600Y70518050D03*
X10007600Y69558050D03*
%TD*%
%TO.C,C10*%
X10007600Y55346150D03*
X10007600Y54386150D03*
%TD*%
%TO.C,C13*%
X10007600Y78104000D03*
X10007600Y77144000D03*
%TD*%
D16*
%TO.C,C7*%
X10210800Y21072350D03*
X10210800Y22032350D03*
%TD*%
D17*
%TO.C,SW1*%
X8193600Y40895200D03*
X8193600Y47395200D03*
X3693600Y40895200D03*
X3693600Y47395200D03*
%TD*%
M02*
