%TF.GenerationSoftware,KiCad,Pcbnew,9.0.0*%
%TF.CreationDate,2025-06-27T10:04:16+02:00*%
%TF.ProjectId,print,7072696e-742e-46b6-9963-61645f706362,v1.1.0*%
%TF.SameCoordinates,Original*%
%TF.FileFunction,Legend,Bot*%
%TF.FilePolarity,Positive*%
%FSLAX46Y46*%
G04 Gerber Fmt 4.6, Leading zero omitted, Abs format (unit mm)*
G04 Created by KiCad (PCBNEW 9.0.0) date 2025-06-27 10:04:16*
%MOMM*%
%LPD*%
G01*
G04 APERTURE LIST*
G04 Aperture macros list*
%AMRoundRect*
0 Rectangle with rounded corners*
0 $1 Rounding radius*
0 $2 $3 $4 $5 $6 $7 $8 $9 X,Y pos of 4 corners*
0 Add a 4 corners polygon primitive as box body*
4,1,4,$2,$3,$4,$5,$6,$7,$8,$9,$2,$3,0*
0 Add four circle primitives for the rounded corners*
1,1,$1+$1,$2,$3*
1,1,$1+$1,$4,$5*
1,1,$1+$1,$6,$7*
1,1,$1+$1,$8,$9*
0 Add four rect primitives between the rounded corners*
20,1,$1+$1,$2,$3,$4,$5,0*
20,1,$1+$1,$4,$5,$6,$7,0*
20,1,$1+$1,$6,$7,$8,$9,0*
20,1,$1+$1,$8,$9,$2,$3,0*%
G04 Aperture macros list end*
%ADD10C,0.090000*%
%ADD11C,0.167000*%
%ADD12C,0.120000*%
%ADD13RoundRect,0.090000X0.660000X0.360000X-0.660000X0.360000X-0.660000X-0.360000X0.660000X-0.360000X0*%
%ADD14C,0.650000*%
%ADD15O,1.000000X2.100000*%
%ADD16O,1.000000X1.800000*%
%ADD17RoundRect,0.140000X-0.170000X0.140000X-0.170000X-0.140000X0.170000X-0.140000X0.170000X0.140000X0*%
%ADD18RoundRect,0.135000X0.185000X-0.135000X0.185000X0.135000X-0.185000X0.135000X-0.185000X-0.135000X0*%
%ADD19RoundRect,0.140000X0.170000X-0.140000X0.170000X0.140000X-0.170000X0.140000X-0.170000X-0.140000X0*%
%ADD20C,2.000000*%
G04 APERTURE END LIST*
D10*
X2461342Y65686371D02*
X2461342Y66186371D01*
X2461342Y66186371D02*
X2342294Y66186371D01*
X2342294Y66186371D02*
X2270866Y66162561D01*
X2270866Y66162561D02*
X2223247Y66114942D01*
X2223247Y66114942D02*
X2199437Y66067323D01*
X2199437Y66067323D02*
X2175628Y65972085D01*
X2175628Y65972085D02*
X2175628Y65900657D01*
X2175628Y65900657D02*
X2199437Y65805419D01*
X2199437Y65805419D02*
X2223247Y65757800D01*
X2223247Y65757800D02*
X2270866Y65710180D01*
X2270866Y65710180D02*
X2342294Y65686371D01*
X2342294Y65686371D02*
X2461342Y65686371D01*
X1937532Y65686371D02*
X1842294Y65686371D01*
X1842294Y65686371D02*
X1794675Y65710180D01*
X1794675Y65710180D02*
X1770866Y65733990D01*
X1770866Y65733990D02*
X1723247Y65805419D01*
X1723247Y65805419D02*
X1699437Y65900657D01*
X1699437Y65900657D02*
X1699437Y66091133D01*
X1699437Y66091133D02*
X1723247Y66138752D01*
X1723247Y66138752D02*
X1747056Y66162561D01*
X1747056Y66162561D02*
X1794675Y66186371D01*
X1794675Y66186371D02*
X1889913Y66186371D01*
X1889913Y66186371D02*
X1937532Y66162561D01*
X1937532Y66162561D02*
X1961342Y66138752D01*
X1961342Y66138752D02*
X1985151Y66091133D01*
X1985151Y66091133D02*
X1985151Y65972085D01*
X1985151Y65972085D02*
X1961342Y65924466D01*
X1961342Y65924466D02*
X1937532Y65900657D01*
X1937532Y65900657D02*
X1889913Y65876847D01*
X1889913Y65876847D02*
X1794675Y65876847D01*
X1794675Y65876847D02*
X1747056Y65900657D01*
X1747056Y65900657D02*
X1723247Y65924466D01*
X1723247Y65924466D02*
X1699437Y65972085D01*
X2461342Y58599771D02*
X2461342Y59099771D01*
X2461342Y59099771D02*
X2342294Y59099771D01*
X2342294Y59099771D02*
X2270866Y59075961D01*
X2270866Y59075961D02*
X2223247Y59028342D01*
X2223247Y59028342D02*
X2199437Y58980723D01*
X2199437Y58980723D02*
X2175628Y58885485D01*
X2175628Y58885485D02*
X2175628Y58814057D01*
X2175628Y58814057D02*
X2199437Y58718819D01*
X2199437Y58718819D02*
X2223247Y58671200D01*
X2223247Y58671200D02*
X2270866Y58623580D01*
X2270866Y58623580D02*
X2342294Y58599771D01*
X2342294Y58599771D02*
X2461342Y58599771D01*
X1889913Y58885485D02*
X1937532Y58909295D01*
X1937532Y58909295D02*
X1961342Y58933104D01*
X1961342Y58933104D02*
X1985151Y58980723D01*
X1985151Y58980723D02*
X1985151Y59004533D01*
X1985151Y59004533D02*
X1961342Y59052152D01*
X1961342Y59052152D02*
X1937532Y59075961D01*
X1937532Y59075961D02*
X1889913Y59099771D01*
X1889913Y59099771D02*
X1794675Y59099771D01*
X1794675Y59099771D02*
X1747056Y59075961D01*
X1747056Y59075961D02*
X1723247Y59052152D01*
X1723247Y59052152D02*
X1699437Y59004533D01*
X1699437Y59004533D02*
X1699437Y58980723D01*
X1699437Y58980723D02*
X1723247Y58933104D01*
X1723247Y58933104D02*
X1747056Y58909295D01*
X1747056Y58909295D02*
X1794675Y58885485D01*
X1794675Y58885485D02*
X1889913Y58885485D01*
X1889913Y58885485D02*
X1937532Y58861676D01*
X1937532Y58861676D02*
X1961342Y58837866D01*
X1961342Y58837866D02*
X1985151Y58790247D01*
X1985151Y58790247D02*
X1985151Y58695009D01*
X1985151Y58695009D02*
X1961342Y58647390D01*
X1961342Y58647390D02*
X1937532Y58623580D01*
X1937532Y58623580D02*
X1889913Y58599771D01*
X1889913Y58599771D02*
X1794675Y58599771D01*
X1794675Y58599771D02*
X1747056Y58623580D01*
X1747056Y58623580D02*
X1723247Y58647390D01*
X1723247Y58647390D02*
X1699437Y58695009D01*
X1699437Y58695009D02*
X1699437Y58790247D01*
X1699437Y58790247D02*
X1723247Y58837866D01*
X1723247Y58837866D02*
X1747056Y58861676D01*
X1747056Y58861676D02*
X1794675Y58885485D01*
X2477247Y8536371D02*
X2477247Y9036371D01*
X2477247Y9036371D02*
X2358199Y9036371D01*
X2358199Y9036371D02*
X2286771Y9012561D01*
X2286771Y9012561D02*
X2239152Y8964942D01*
X2239152Y8964942D02*
X2215342Y8917323D01*
X2215342Y8917323D02*
X2191533Y8822085D01*
X2191533Y8822085D02*
X2191533Y8750657D01*
X2191533Y8750657D02*
X2215342Y8655419D01*
X2215342Y8655419D02*
X2239152Y8607800D01*
X2239152Y8607800D02*
X2286771Y8560180D01*
X2286771Y8560180D02*
X2358199Y8536371D01*
X2358199Y8536371D02*
X2477247Y8536371D01*
X2024866Y9036371D02*
X1715342Y9036371D01*
X1715342Y9036371D02*
X1882009Y8845895D01*
X1882009Y8845895D02*
X1810580Y8845895D01*
X1810580Y8845895D02*
X1762961Y8822085D01*
X1762961Y8822085D02*
X1739152Y8798276D01*
X1739152Y8798276D02*
X1715342Y8750657D01*
X1715342Y8750657D02*
X1715342Y8631609D01*
X1715342Y8631609D02*
X1739152Y8583990D01*
X1739152Y8583990D02*
X1762961Y8560180D01*
X1762961Y8560180D02*
X1810580Y8536371D01*
X1810580Y8536371D02*
X1953437Y8536371D01*
X1953437Y8536371D02*
X2001056Y8560180D01*
X2001056Y8560180D02*
X2024866Y8583990D01*
X2461342Y31396371D02*
X2461342Y31896371D01*
X2461342Y31896371D02*
X2342294Y31896371D01*
X2342294Y31896371D02*
X2270866Y31872561D01*
X2270866Y31872561D02*
X2223247Y31824942D01*
X2223247Y31824942D02*
X2199437Y31777323D01*
X2199437Y31777323D02*
X2175628Y31682085D01*
X2175628Y31682085D02*
X2175628Y31610657D01*
X2175628Y31610657D02*
X2199437Y31515419D01*
X2199437Y31515419D02*
X2223247Y31467800D01*
X2223247Y31467800D02*
X2270866Y31420180D01*
X2270866Y31420180D02*
X2342294Y31396371D01*
X2342294Y31396371D02*
X2461342Y31396371D01*
X1747056Y31896371D02*
X1842294Y31896371D01*
X1842294Y31896371D02*
X1889913Y31872561D01*
X1889913Y31872561D02*
X1913723Y31848752D01*
X1913723Y31848752D02*
X1961342Y31777323D01*
X1961342Y31777323D02*
X1985151Y31682085D01*
X1985151Y31682085D02*
X1985151Y31491609D01*
X1985151Y31491609D02*
X1961342Y31443990D01*
X1961342Y31443990D02*
X1937532Y31420180D01*
X1937532Y31420180D02*
X1889913Y31396371D01*
X1889913Y31396371D02*
X1794675Y31396371D01*
X1794675Y31396371D02*
X1747056Y31420180D01*
X1747056Y31420180D02*
X1723247Y31443990D01*
X1723247Y31443990D02*
X1699437Y31491609D01*
X1699437Y31491609D02*
X1699437Y31610657D01*
X1699437Y31610657D02*
X1723247Y31658276D01*
X1723247Y31658276D02*
X1747056Y31682085D01*
X1747056Y31682085D02*
X1794675Y31705895D01*
X1794675Y31705895D02*
X1889913Y31705895D01*
X1889913Y31705895D02*
X1937532Y31682085D01*
X1937532Y31682085D02*
X1961342Y31658276D01*
X1961342Y31658276D02*
X1985151Y31610657D01*
X2461342Y16257971D02*
X2461342Y16757971D01*
X2461342Y16757971D02*
X2342294Y16757971D01*
X2342294Y16757971D02*
X2270866Y16734161D01*
X2270866Y16734161D02*
X2223247Y16686542D01*
X2223247Y16686542D02*
X2199437Y16638923D01*
X2199437Y16638923D02*
X2175628Y16543685D01*
X2175628Y16543685D02*
X2175628Y16472257D01*
X2175628Y16472257D02*
X2199437Y16377019D01*
X2199437Y16377019D02*
X2223247Y16329400D01*
X2223247Y16329400D02*
X2270866Y16281780D01*
X2270866Y16281780D02*
X2342294Y16257971D01*
X2342294Y16257971D02*
X2461342Y16257971D01*
X1747056Y16591304D02*
X1747056Y16257971D01*
X1866104Y16781780D02*
X1985151Y16424638D01*
X1985151Y16424638D02*
X1675628Y16424638D01*
X2461342Y50547971D02*
X2461342Y51047971D01*
X2461342Y51047971D02*
X2342294Y51047971D01*
X2342294Y51047971D02*
X2270866Y51024161D01*
X2270866Y51024161D02*
X2223247Y50976542D01*
X2223247Y50976542D02*
X2199437Y50928923D01*
X2199437Y50928923D02*
X2175628Y50833685D01*
X2175628Y50833685D02*
X2175628Y50762257D01*
X2175628Y50762257D02*
X2199437Y50667019D01*
X2199437Y50667019D02*
X2223247Y50619400D01*
X2223247Y50619400D02*
X2270866Y50571780D01*
X2270866Y50571780D02*
X2342294Y50547971D01*
X2342294Y50547971D02*
X2461342Y50547971D01*
X2008961Y51047971D02*
X1675628Y51047971D01*
X1675628Y51047971D02*
X1889913Y50547971D01*
X2461342Y73280971D02*
X2461342Y73780971D01*
X2461342Y73780971D02*
X2342294Y73780971D01*
X2342294Y73780971D02*
X2270866Y73757161D01*
X2270866Y73757161D02*
X2223247Y73709542D01*
X2223247Y73709542D02*
X2199437Y73661923D01*
X2199437Y73661923D02*
X2175628Y73566685D01*
X2175628Y73566685D02*
X2175628Y73495257D01*
X2175628Y73495257D02*
X2199437Y73400019D01*
X2199437Y73400019D02*
X2223247Y73352400D01*
X2223247Y73352400D02*
X2270866Y73304780D01*
X2270866Y73304780D02*
X2342294Y73280971D01*
X2342294Y73280971D02*
X2461342Y73280971D01*
X1699437Y73280971D02*
X1985151Y73280971D01*
X1842294Y73280971D02*
X1842294Y73780971D01*
X1842294Y73780971D02*
X1889913Y73709542D01*
X1889913Y73709542D02*
X1937532Y73661923D01*
X1937532Y73661923D02*
X1985151Y73638114D01*
X1389914Y73780971D02*
X1342295Y73780971D01*
X1342295Y73780971D02*
X1294676Y73757161D01*
X1294676Y73757161D02*
X1270866Y73733352D01*
X1270866Y73733352D02*
X1247057Y73685733D01*
X1247057Y73685733D02*
X1223247Y73590495D01*
X1223247Y73590495D02*
X1223247Y73471447D01*
X1223247Y73471447D02*
X1247057Y73376209D01*
X1247057Y73376209D02*
X1270866Y73328590D01*
X1270866Y73328590D02*
X1294676Y73304780D01*
X1294676Y73304780D02*
X1342295Y73280971D01*
X1342295Y73280971D02*
X1389914Y73280971D01*
X1389914Y73280971D02*
X1437533Y73304780D01*
X1437533Y73304780D02*
X1461342Y73328590D01*
X1461342Y73328590D02*
X1485152Y73376209D01*
X1485152Y73376209D02*
X1508961Y73471447D01*
X1508961Y73471447D02*
X1508961Y73590495D01*
X1508961Y73590495D02*
X1485152Y73685733D01*
X1485152Y73685733D02*
X1461342Y73733352D01*
X1461342Y73733352D02*
X1437533Y73757161D01*
X1437533Y73757161D02*
X1389914Y73780971D01*
X2461342Y23852571D02*
X2461342Y24352571D01*
X2461342Y24352571D02*
X2342294Y24352571D01*
X2342294Y24352571D02*
X2270866Y24328761D01*
X2270866Y24328761D02*
X2223247Y24281142D01*
X2223247Y24281142D02*
X2199437Y24233523D01*
X2199437Y24233523D02*
X2175628Y24138285D01*
X2175628Y24138285D02*
X2175628Y24066857D01*
X2175628Y24066857D02*
X2199437Y23971619D01*
X2199437Y23971619D02*
X2223247Y23924000D01*
X2223247Y23924000D02*
X2270866Y23876380D01*
X2270866Y23876380D02*
X2342294Y23852571D01*
X2342294Y23852571D02*
X2461342Y23852571D01*
X1723247Y24352571D02*
X1961342Y24352571D01*
X1961342Y24352571D02*
X1985151Y24114476D01*
X1985151Y24114476D02*
X1961342Y24138285D01*
X1961342Y24138285D02*
X1913723Y24162095D01*
X1913723Y24162095D02*
X1794675Y24162095D01*
X1794675Y24162095D02*
X1747056Y24138285D01*
X1747056Y24138285D02*
X1723247Y24114476D01*
X1723247Y24114476D02*
X1699437Y24066857D01*
X1699437Y24066857D02*
X1699437Y23947809D01*
X1699437Y23947809D02*
X1723247Y23900190D01*
X1723247Y23900190D02*
X1747056Y23876380D01*
X1747056Y23876380D02*
X1794675Y23852571D01*
X1794675Y23852571D02*
X1913723Y23852571D01*
X1913723Y23852571D02*
X1961342Y23876380D01*
X1961342Y23876380D02*
X1985151Y23900190D01*
X10090933Y37031990D02*
X10114742Y37008180D01*
X10114742Y37008180D02*
X10186171Y36984371D01*
X10186171Y36984371D02*
X10233790Y36984371D01*
X10233790Y36984371D02*
X10305218Y37008180D01*
X10305218Y37008180D02*
X10352837Y37055800D01*
X10352837Y37055800D02*
X10376647Y37103419D01*
X10376647Y37103419D02*
X10400456Y37198657D01*
X10400456Y37198657D02*
X10400456Y37270085D01*
X10400456Y37270085D02*
X10376647Y37365323D01*
X10376647Y37365323D02*
X10352837Y37412942D01*
X10352837Y37412942D02*
X10305218Y37460561D01*
X10305218Y37460561D02*
X10233790Y37484371D01*
X10233790Y37484371D02*
X10186171Y37484371D01*
X10186171Y37484371D02*
X10114742Y37460561D01*
X10114742Y37460561D02*
X10090933Y37436752D01*
X9852837Y36984371D02*
X9757599Y36984371D01*
X9757599Y36984371D02*
X9709980Y37008180D01*
X9709980Y37008180D02*
X9686171Y37031990D01*
X9686171Y37031990D02*
X9638552Y37103419D01*
X9638552Y37103419D02*
X9614742Y37198657D01*
X9614742Y37198657D02*
X9614742Y37389133D01*
X9614742Y37389133D02*
X9638552Y37436752D01*
X9638552Y37436752D02*
X9662361Y37460561D01*
X9662361Y37460561D02*
X9709980Y37484371D01*
X9709980Y37484371D02*
X9805218Y37484371D01*
X9805218Y37484371D02*
X9852837Y37460561D01*
X9852837Y37460561D02*
X9876647Y37436752D01*
X9876647Y37436752D02*
X9900456Y37389133D01*
X9900456Y37389133D02*
X9900456Y37270085D01*
X9900456Y37270085D02*
X9876647Y37222466D01*
X9876647Y37222466D02*
X9852837Y37198657D01*
X9852837Y37198657D02*
X9805218Y37174847D01*
X9805218Y37174847D02*
X9709980Y37174847D01*
X9709980Y37174847D02*
X9662361Y37198657D01*
X9662361Y37198657D02*
X9638552Y37222466D01*
X9638552Y37222466D02*
X9614742Y37270085D01*
X10329028Y63600390D02*
X10352837Y63576580D01*
X10352837Y63576580D02*
X10424266Y63552771D01*
X10424266Y63552771D02*
X10471885Y63552771D01*
X10471885Y63552771D02*
X10543313Y63576580D01*
X10543313Y63576580D02*
X10590932Y63624200D01*
X10590932Y63624200D02*
X10614742Y63671819D01*
X10614742Y63671819D02*
X10638551Y63767057D01*
X10638551Y63767057D02*
X10638551Y63838485D01*
X10638551Y63838485D02*
X10614742Y63933723D01*
X10614742Y63933723D02*
X10590932Y63981342D01*
X10590932Y63981342D02*
X10543313Y64028961D01*
X10543313Y64028961D02*
X10471885Y64052771D01*
X10471885Y64052771D02*
X10424266Y64052771D01*
X10424266Y64052771D02*
X10352837Y64028961D01*
X10352837Y64028961D02*
X10329028Y64005152D01*
X9852837Y63552771D02*
X10138551Y63552771D01*
X9995694Y63552771D02*
X9995694Y64052771D01*
X9995694Y64052771D02*
X10043313Y63981342D01*
X10043313Y63981342D02*
X10090932Y63933723D01*
X10090932Y63933723D02*
X10138551Y63909914D01*
X9376647Y63552771D02*
X9662361Y63552771D01*
X9519504Y63552771D02*
X9519504Y64052771D01*
X9519504Y64052771D02*
X9567123Y63981342D01*
X9567123Y63981342D02*
X9614742Y63933723D01*
X9614742Y63933723D02*
X9662361Y63909914D01*
X1658133Y14073571D02*
X1824799Y14311666D01*
X1943847Y14073571D02*
X1943847Y14573571D01*
X1943847Y14573571D02*
X1753371Y14573571D01*
X1753371Y14573571D02*
X1705752Y14549761D01*
X1705752Y14549761D02*
X1681942Y14525952D01*
X1681942Y14525952D02*
X1658133Y14478333D01*
X1658133Y14478333D02*
X1658133Y14406904D01*
X1658133Y14406904D02*
X1681942Y14359285D01*
X1681942Y14359285D02*
X1705752Y14335476D01*
X1705752Y14335476D02*
X1753371Y14311666D01*
X1753371Y14311666D02*
X1943847Y14311666D01*
X1205752Y14573571D02*
X1443847Y14573571D01*
X1443847Y14573571D02*
X1467656Y14335476D01*
X1467656Y14335476D02*
X1443847Y14359285D01*
X1443847Y14359285D02*
X1396228Y14383095D01*
X1396228Y14383095D02*
X1277180Y14383095D01*
X1277180Y14383095D02*
X1229561Y14359285D01*
X1229561Y14359285D02*
X1205752Y14335476D01*
X1205752Y14335476D02*
X1181942Y14287857D01*
X1181942Y14287857D02*
X1181942Y14168809D01*
X1181942Y14168809D02*
X1205752Y14121190D01*
X1205752Y14121190D02*
X1229561Y14097380D01*
X1229561Y14097380D02*
X1277180Y14073571D01*
X1277180Y14073571D02*
X1396228Y14073571D01*
X1396228Y14073571D02*
X1443847Y14097380D01*
X1443847Y14097380D02*
X1467656Y14121190D01*
X10294133Y29234190D02*
X10317942Y29210380D01*
X10317942Y29210380D02*
X10389371Y29186571D01*
X10389371Y29186571D02*
X10436990Y29186571D01*
X10436990Y29186571D02*
X10508418Y29210380D01*
X10508418Y29210380D02*
X10556037Y29258000D01*
X10556037Y29258000D02*
X10579847Y29305619D01*
X10579847Y29305619D02*
X10603656Y29400857D01*
X10603656Y29400857D02*
X10603656Y29472285D01*
X10603656Y29472285D02*
X10579847Y29567523D01*
X10579847Y29567523D02*
X10556037Y29615142D01*
X10556037Y29615142D02*
X10508418Y29662761D01*
X10508418Y29662761D02*
X10436990Y29686571D01*
X10436990Y29686571D02*
X10389371Y29686571D01*
X10389371Y29686571D02*
X10317942Y29662761D01*
X10317942Y29662761D02*
X10294133Y29638952D01*
X10008418Y29472285D02*
X10056037Y29496095D01*
X10056037Y29496095D02*
X10079847Y29519904D01*
X10079847Y29519904D02*
X10103656Y29567523D01*
X10103656Y29567523D02*
X10103656Y29591333D01*
X10103656Y29591333D02*
X10079847Y29638952D01*
X10079847Y29638952D02*
X10056037Y29662761D01*
X10056037Y29662761D02*
X10008418Y29686571D01*
X10008418Y29686571D02*
X9913180Y29686571D01*
X9913180Y29686571D02*
X9865561Y29662761D01*
X9865561Y29662761D02*
X9841752Y29638952D01*
X9841752Y29638952D02*
X9817942Y29591333D01*
X9817942Y29591333D02*
X9817942Y29567523D01*
X9817942Y29567523D02*
X9841752Y29519904D01*
X9841752Y29519904D02*
X9865561Y29496095D01*
X9865561Y29496095D02*
X9913180Y29472285D01*
X9913180Y29472285D02*
X10008418Y29472285D01*
X10008418Y29472285D02*
X10056037Y29448476D01*
X10056037Y29448476D02*
X10079847Y29424666D01*
X10079847Y29424666D02*
X10103656Y29377047D01*
X10103656Y29377047D02*
X10103656Y29281809D01*
X10103656Y29281809D02*
X10079847Y29234190D01*
X10079847Y29234190D02*
X10056037Y29210380D01*
X10056037Y29210380D02*
X10008418Y29186571D01*
X10008418Y29186571D02*
X9913180Y29186571D01*
X9913180Y29186571D02*
X9865561Y29210380D01*
X9865561Y29210380D02*
X9841752Y29234190D01*
X9841752Y29234190D02*
X9817942Y29281809D01*
X9817942Y29281809D02*
X9817942Y29377047D01*
X9817942Y29377047D02*
X9841752Y29424666D01*
X9841752Y29424666D02*
X9865561Y29448476D01*
X9865561Y29448476D02*
X9913180Y29472285D01*
X10294133Y14171990D02*
X10317942Y14148180D01*
X10317942Y14148180D02*
X10389371Y14124371D01*
X10389371Y14124371D02*
X10436990Y14124371D01*
X10436990Y14124371D02*
X10508418Y14148180D01*
X10508418Y14148180D02*
X10556037Y14195800D01*
X10556037Y14195800D02*
X10579847Y14243419D01*
X10579847Y14243419D02*
X10603656Y14338657D01*
X10603656Y14338657D02*
X10603656Y14410085D01*
X10603656Y14410085D02*
X10579847Y14505323D01*
X10579847Y14505323D02*
X10556037Y14552942D01*
X10556037Y14552942D02*
X10508418Y14600561D01*
X10508418Y14600561D02*
X10436990Y14624371D01*
X10436990Y14624371D02*
X10389371Y14624371D01*
X10389371Y14624371D02*
X10317942Y14600561D01*
X10317942Y14600561D02*
X10294133Y14576752D01*
X9865561Y14624371D02*
X9960799Y14624371D01*
X9960799Y14624371D02*
X10008418Y14600561D01*
X10008418Y14600561D02*
X10032228Y14576752D01*
X10032228Y14576752D02*
X10079847Y14505323D01*
X10079847Y14505323D02*
X10103656Y14410085D01*
X10103656Y14410085D02*
X10103656Y14219609D01*
X10103656Y14219609D02*
X10079847Y14171990D01*
X10079847Y14171990D02*
X10056037Y14148180D01*
X10056037Y14148180D02*
X10008418Y14124371D01*
X10008418Y14124371D02*
X9913180Y14124371D01*
X9913180Y14124371D02*
X9865561Y14148180D01*
X9865561Y14148180D02*
X9841752Y14171990D01*
X9841752Y14171990D02*
X9817942Y14219609D01*
X9817942Y14219609D02*
X9817942Y14338657D01*
X9817942Y14338657D02*
X9841752Y14386276D01*
X9841752Y14386276D02*
X9865561Y14410085D01*
X9865561Y14410085D02*
X9913180Y14433895D01*
X9913180Y14433895D02*
X10008418Y14433895D01*
X10008418Y14433895D02*
X10056037Y14410085D01*
X10056037Y14410085D02*
X10079847Y14386276D01*
X10079847Y14386276D02*
X10103656Y14338657D01*
X10329028Y71169590D02*
X10352837Y71145780D01*
X10352837Y71145780D02*
X10424266Y71121971D01*
X10424266Y71121971D02*
X10471885Y71121971D01*
X10471885Y71121971D02*
X10543313Y71145780D01*
X10543313Y71145780D02*
X10590932Y71193400D01*
X10590932Y71193400D02*
X10614742Y71241019D01*
X10614742Y71241019D02*
X10638551Y71336257D01*
X10638551Y71336257D02*
X10638551Y71407685D01*
X10638551Y71407685D02*
X10614742Y71502923D01*
X10614742Y71502923D02*
X10590932Y71550542D01*
X10590932Y71550542D02*
X10543313Y71598161D01*
X10543313Y71598161D02*
X10471885Y71621971D01*
X10471885Y71621971D02*
X10424266Y71621971D01*
X10424266Y71621971D02*
X10352837Y71598161D01*
X10352837Y71598161D02*
X10329028Y71574352D01*
X9852837Y71121971D02*
X10138551Y71121971D01*
X9995694Y71121971D02*
X9995694Y71621971D01*
X9995694Y71621971D02*
X10043313Y71550542D01*
X10043313Y71550542D02*
X10090932Y71502923D01*
X10090932Y71502923D02*
X10138551Y71479114D01*
X9662361Y71574352D02*
X9638552Y71598161D01*
X9638552Y71598161D02*
X9590933Y71621971D01*
X9590933Y71621971D02*
X9471885Y71621971D01*
X9471885Y71621971D02*
X9424266Y71598161D01*
X9424266Y71598161D02*
X9400457Y71574352D01*
X9400457Y71574352D02*
X9376647Y71526733D01*
X9376647Y71526733D02*
X9376647Y71479114D01*
X9376647Y71479114D02*
X9400457Y71407685D01*
X9400457Y71407685D02*
X9686171Y71121971D01*
X9686171Y71121971D02*
X9376647Y71121971D01*
X10303628Y55954990D02*
X10327437Y55931180D01*
X10327437Y55931180D02*
X10398866Y55907371D01*
X10398866Y55907371D02*
X10446485Y55907371D01*
X10446485Y55907371D02*
X10517913Y55931180D01*
X10517913Y55931180D02*
X10565532Y55978800D01*
X10565532Y55978800D02*
X10589342Y56026419D01*
X10589342Y56026419D02*
X10613151Y56121657D01*
X10613151Y56121657D02*
X10613151Y56193085D01*
X10613151Y56193085D02*
X10589342Y56288323D01*
X10589342Y56288323D02*
X10565532Y56335942D01*
X10565532Y56335942D02*
X10517913Y56383561D01*
X10517913Y56383561D02*
X10446485Y56407371D01*
X10446485Y56407371D02*
X10398866Y56407371D01*
X10398866Y56407371D02*
X10327437Y56383561D01*
X10327437Y56383561D02*
X10303628Y56359752D01*
X9827437Y55907371D02*
X10113151Y55907371D01*
X9970294Y55907371D02*
X9970294Y56407371D01*
X9970294Y56407371D02*
X10017913Y56335942D01*
X10017913Y56335942D02*
X10065532Y56288323D01*
X10065532Y56288323D02*
X10113151Y56264514D01*
X9517914Y56407371D02*
X9470295Y56407371D01*
X9470295Y56407371D02*
X9422676Y56383561D01*
X9422676Y56383561D02*
X9398866Y56359752D01*
X9398866Y56359752D02*
X9375057Y56312133D01*
X9375057Y56312133D02*
X9351247Y56216895D01*
X9351247Y56216895D02*
X9351247Y56097847D01*
X9351247Y56097847D02*
X9375057Y56002609D01*
X9375057Y56002609D02*
X9398866Y55954990D01*
X9398866Y55954990D02*
X9422676Y55931180D01*
X9422676Y55931180D02*
X9470295Y55907371D01*
X9470295Y55907371D02*
X9517914Y55907371D01*
X9517914Y55907371D02*
X9565533Y55931180D01*
X9565533Y55931180D02*
X9589342Y55954990D01*
X9589342Y55954990D02*
X9613152Y56002609D01*
X9613152Y56002609D02*
X9636961Y56097847D01*
X9636961Y56097847D02*
X9636961Y56216895D01*
X9636961Y56216895D02*
X9613152Y56312133D01*
X9613152Y56312133D02*
X9589342Y56359752D01*
X9589342Y56359752D02*
X9565533Y56383561D01*
X9565533Y56383561D02*
X9517914Y56407371D01*
X10329028Y78764190D02*
X10352837Y78740380D01*
X10352837Y78740380D02*
X10424266Y78716571D01*
X10424266Y78716571D02*
X10471885Y78716571D01*
X10471885Y78716571D02*
X10543313Y78740380D01*
X10543313Y78740380D02*
X10590932Y78788000D01*
X10590932Y78788000D02*
X10614742Y78835619D01*
X10614742Y78835619D02*
X10638551Y78930857D01*
X10638551Y78930857D02*
X10638551Y79002285D01*
X10638551Y79002285D02*
X10614742Y79097523D01*
X10614742Y79097523D02*
X10590932Y79145142D01*
X10590932Y79145142D02*
X10543313Y79192761D01*
X10543313Y79192761D02*
X10471885Y79216571D01*
X10471885Y79216571D02*
X10424266Y79216571D01*
X10424266Y79216571D02*
X10352837Y79192761D01*
X10352837Y79192761D02*
X10329028Y79168952D01*
X9852837Y78716571D02*
X10138551Y78716571D01*
X9995694Y78716571D02*
X9995694Y79216571D01*
X9995694Y79216571D02*
X10043313Y79145142D01*
X10043313Y79145142D02*
X10090932Y79097523D01*
X10090932Y79097523D02*
X10138551Y79073714D01*
X9686171Y79216571D02*
X9376647Y79216571D01*
X9376647Y79216571D02*
X9543314Y79026095D01*
X9543314Y79026095D02*
X9471885Y79026095D01*
X9471885Y79026095D02*
X9424266Y79002285D01*
X9424266Y79002285D02*
X9400457Y78978476D01*
X9400457Y78978476D02*
X9376647Y78930857D01*
X9376647Y78930857D02*
X9376647Y78811809D01*
X9376647Y78811809D02*
X9400457Y78764190D01*
X9400457Y78764190D02*
X9424266Y78740380D01*
X9424266Y78740380D02*
X9471885Y78716571D01*
X9471885Y78716571D02*
X9614742Y78716571D01*
X9614742Y78716571D02*
X9662361Y78740380D01*
X9662361Y78740380D02*
X9686171Y78764190D01*
X10294133Y20064790D02*
X10317942Y20040980D01*
X10317942Y20040980D02*
X10389371Y20017171D01*
X10389371Y20017171D02*
X10436990Y20017171D01*
X10436990Y20017171D02*
X10508418Y20040980D01*
X10508418Y20040980D02*
X10556037Y20088600D01*
X10556037Y20088600D02*
X10579847Y20136219D01*
X10579847Y20136219D02*
X10603656Y20231457D01*
X10603656Y20231457D02*
X10603656Y20302885D01*
X10603656Y20302885D02*
X10579847Y20398123D01*
X10579847Y20398123D02*
X10556037Y20445742D01*
X10556037Y20445742D02*
X10508418Y20493361D01*
X10508418Y20493361D02*
X10436990Y20517171D01*
X10436990Y20517171D02*
X10389371Y20517171D01*
X10389371Y20517171D02*
X10317942Y20493361D01*
X10317942Y20493361D02*
X10294133Y20469552D01*
X10127466Y20517171D02*
X9794133Y20517171D01*
X9794133Y20517171D02*
X10008418Y20017171D01*
X6457865Y44043980D02*
X6386437Y44020171D01*
X6386437Y44020171D02*
X6267389Y44020171D01*
X6267389Y44020171D02*
X6219770Y44043980D01*
X6219770Y44043980D02*
X6195961Y44067790D01*
X6195961Y44067790D02*
X6172151Y44115409D01*
X6172151Y44115409D02*
X6172151Y44163028D01*
X6172151Y44163028D02*
X6195961Y44210647D01*
X6195961Y44210647D02*
X6219770Y44234457D01*
X6219770Y44234457D02*
X6267389Y44258266D01*
X6267389Y44258266D02*
X6362627Y44282076D01*
X6362627Y44282076D02*
X6410246Y44305885D01*
X6410246Y44305885D02*
X6434056Y44329695D01*
X6434056Y44329695D02*
X6457865Y44377314D01*
X6457865Y44377314D02*
X6457865Y44424933D01*
X6457865Y44424933D02*
X6434056Y44472552D01*
X6434056Y44472552D02*
X6410246Y44496361D01*
X6410246Y44496361D02*
X6362627Y44520171D01*
X6362627Y44520171D02*
X6243580Y44520171D01*
X6243580Y44520171D02*
X6172151Y44496361D01*
X6005485Y44520171D02*
X5886437Y44020171D01*
X5886437Y44020171D02*
X5791199Y44377314D01*
X5791199Y44377314D02*
X5695961Y44020171D01*
X5695961Y44020171D02*
X5576914Y44520171D01*
X5124532Y44020171D02*
X5410246Y44020171D01*
X5267389Y44020171D02*
X5267389Y44520171D01*
X5267389Y44520171D02*
X5315008Y44448742D01*
X5315008Y44448742D02*
X5362627Y44401123D01*
X5362627Y44401123D02*
X5410246Y44377314D01*
%TO.C,D9*%
D11*
X3106100Y66455050D02*
G75*
G02*
X2939100Y66455050I-83500J0D01*
G01*
X2939100Y66455050D02*
G75*
G02*
X3106100Y66455050I83500J0D01*
G01*
%TO.C,D8*%
X3106100Y58869100D02*
G75*
G02*
X2939100Y58869100I-83500J0D01*
G01*
X2939100Y58869100D02*
G75*
G02*
X3106100Y58869100I83500J0D01*
G01*
%TO.C,D3*%
X3106100Y9423400D02*
G75*
G02*
X2939100Y9423400I-83500J0D01*
G01*
X2939100Y9423400D02*
G75*
G02*
X3106100Y9423400I83500J0D01*
G01*
%TO.C,D6*%
X3106100Y32181250D02*
G75*
G02*
X2939100Y32181250I-83500J0D01*
G01*
X2939100Y32181250D02*
G75*
G02*
X3106100Y32181250I83500J0D01*
G01*
%TO.C,D4*%
X3106100Y17009350D02*
G75*
G02*
X2939100Y17009350I-83500J0D01*
G01*
X2939100Y17009350D02*
G75*
G02*
X3106100Y17009350I83500J0D01*
G01*
%TO.C,D7*%
X3106100Y51283150D02*
G75*
G02*
X2939100Y51283150I-83500J0D01*
G01*
X2939100Y51283150D02*
G75*
G02*
X3106100Y51283150I83500J0D01*
G01*
%TO.C,D10*%
X3106100Y74041000D02*
G75*
G02*
X2939100Y74041000I-83500J0D01*
G01*
X2939100Y74041000D02*
G75*
G02*
X3106100Y74041000I83500J0D01*
G01*
%TO.C,D5*%
X3106100Y24595300D02*
G75*
G02*
X2939100Y24595300I-83500J0D01*
G01*
X2939100Y24595300D02*
G75*
G02*
X3106100Y24595300I83500J0D01*
G01*
D12*
%TO.C,C9*%
X9647600Y35872086D02*
X9647600Y35656414D01*
X10367600Y35872086D02*
X10367600Y35656414D01*
%TO.C,C11*%
X9647600Y62518236D02*
X9647600Y62302564D01*
X10367600Y62518236D02*
X10367600Y62302564D01*
%TO.C,R5*%
X1194800Y12822759D02*
X1194800Y13130041D01*
X1954800Y12822759D02*
X1954800Y13130041D01*
%TO.C,C8*%
X9850800Y28286136D02*
X9850800Y28070464D01*
X10570800Y28286136D02*
X10570800Y28070464D01*
%TO.C,C6*%
X9850800Y13114236D02*
X9850800Y12898564D01*
X10570800Y13114236D02*
X10570800Y12898564D01*
%TO.C,C12*%
X9647600Y70145886D02*
X9647600Y69930214D01*
X10367600Y70145886D02*
X10367600Y69930214D01*
%TO.C,C10*%
X9647600Y54973986D02*
X9647600Y54758314D01*
X10367600Y54973986D02*
X10367600Y54758314D01*
%TO.C,C13*%
X9647600Y77731836D02*
X9647600Y77516164D01*
X10367600Y77731836D02*
X10367600Y77516164D01*
%TO.C,C7*%
X9850800Y21444514D02*
X9850800Y21660186D01*
X10570800Y21444514D02*
X10570800Y21660186D01*
%TO.C,SW1*%
X2693600Y41895200D02*
X2693600Y46395200D01*
X5193600Y47645200D02*
X6693600Y47645200D01*
X6693600Y40645200D02*
X5193600Y40645200D01*
X9193600Y46395200D02*
X9193600Y41895200D01*
%TD*%
%LPC*%
D13*
%TO.C,D9*%
X8393600Y70518050D03*
X8393600Y67218050D03*
X3493600Y67218050D03*
X3493600Y70518050D03*
%TD*%
%TO.C,D8*%
X8393600Y62932100D03*
X8393600Y59632100D03*
X3493600Y59632100D03*
X3493600Y62932100D03*
%TD*%
%TO.C,D3*%
X8393600Y13486400D03*
X8393600Y10186400D03*
X3493600Y10186400D03*
X3493600Y13486400D03*
%TD*%
%TO.C,D6*%
X8393600Y36244250D03*
X8393600Y32944250D03*
X3493600Y32944250D03*
X3493600Y36244250D03*
%TD*%
%TO.C,D4*%
X8393600Y21072350D03*
X8393600Y17772350D03*
X3493600Y17772350D03*
X3493600Y21072350D03*
%TD*%
%TO.C,D7*%
X8393600Y55346150D03*
X8393600Y52046150D03*
X3493600Y52046150D03*
X3493600Y55346150D03*
%TD*%
%TO.C,D10*%
X8393600Y78104000D03*
X8393600Y74804000D03*
X3493600Y74804000D03*
X3493600Y78104000D03*
%TD*%
%TO.C,D5*%
X8393600Y28658300D03*
X8393600Y25358300D03*
X3493600Y25358300D03*
X3493600Y28658300D03*
%TD*%
D14*
%TO.C,J1*%
X3110000Y6364200D03*
X8890000Y6364200D03*
D15*
X1680000Y6864200D03*
D16*
X1680000Y2684200D03*
D15*
X10320000Y6864200D03*
D16*
X10320000Y2684200D03*
%TD*%
D17*
%TO.C,C9*%
X10007600Y36244250D03*
X10007600Y35284250D03*
%TD*%
%TO.C,C11*%
X10007600Y62890400D03*
X10007600Y61930400D03*
%TD*%
D18*
%TO.C,R5*%
X1574800Y12466400D03*
X1574800Y13486400D03*
%TD*%
D17*
%TO.C,C8*%
X10210800Y28658300D03*
X10210800Y27698300D03*
%TD*%
%TO.C,C6*%
X10210800Y13486400D03*
X10210800Y12526400D03*
%TD*%
%TO.C,C12*%
X10007600Y70518050D03*
X10007600Y69558050D03*
%TD*%
%TO.C,C10*%
X10007600Y55346150D03*
X10007600Y54386150D03*
%TD*%
%TO.C,C13*%
X10007600Y78104000D03*
X10007600Y77144000D03*
%TD*%
D19*
%TO.C,C7*%
X10210800Y21072350D03*
X10210800Y22032350D03*
%TD*%
D20*
%TO.C,SW1*%
X8193600Y40895200D03*
X8193600Y47395200D03*
X3693600Y40895200D03*
X3693600Y47395200D03*
%TD*%
%LPD*%
M02*
