M48
; DRILL file {KiCad 9.0.0} date 2025-06-27T10:04:16+0200
; FORMAT={-:-/ absolute / inch / decimal}
; #@! TF.CreationDate,2025-06-27T10:04:16+02:00
; #@! TF.GenerationSoftware,Kicad,Pcbnew,9.0.0
; #@! TF.FileFunction,Plated,1,2,PTH
FMAT,2
INCH
; #@! TA.AperFunction,Plated,PTH,ViaDrill
T1C0.0118
; #@! TA.AperFunction,Plated,PTH,ComponentDrill
T2C0.0236
; #@! TA.AperFunction,Plated,PTH,ComponentDrill
T3C0.0433
%
G90
G05
T1
X0.1Y1.18
X0.1Y1.07
X0.14Y1.18
X0.14Y1.07
X0.17Y1.365
X0.18Y1.18
X0.18Y1.07
X0.19Y0.232
X0.212Y1.282
X0.22Y0.862
X0.234Y0.792
X0.234Y0.4532
X0.239Y0.232
X0.2715Y0.3785
X0.288Y0.232
X0.3305Y0.586
X0.384Y0.592
X0.408Y0.756
X0.43Y1.546
X0.438Y1.05
T3
X0.1454Y1.866
X0.1454Y1.61
X0.3226Y1.866
X0.3226Y1.61
T2
G00X0.0661Y0.2919
M15
G01X0.0661Y0.2486
M16
G05
G00X0.0661Y0.1214
M15
G01X0.0661Y0.0899
M16
G05
G00X0.4063Y0.2919
M15
G01X0.4063Y0.2486
M16
G05
G00X0.4063Y0.1214
M15
G01X0.4063Y0.0899
M16
G05
M30
