%TF.GenerationSoftware,KiCad,Pcbnew,9.0.0*%
%TF.CreationDate,2025-06-27T10:04:15+02:00*%
%TF.ProjectId,print,7072696e-742e-46b6-9963-61645f706362,v1.1.0*%
%TF.SameCoordinates,Original*%
%TF.FileFunction,Soldermask,Top*%
%TF.FilePolarity,Negative*%
%FSLAX46Y46*%
G04 Gerber Fmt 4.6, Leading zero omitted, Abs format (unit mm)*
G04 Created by KiCad (PCBNEW 9.0.0) date 2025-06-27 10:04:15*
%MOMM*%
%LPD*%
G01*
G04 APERTURE LIST*
G04 Aperture macros list*
%AMRoundRect*
0 Rectangle with rounded corners*
0 $1 Rounding radius*
0 $2 $3 $4 $5 $6 $7 $8 $9 X,Y pos of 4 corners*
0 Add a 4 corners polygon primitive as box body*
4,1,4,$2,$3,$4,$5,$6,$7,$8,$9,$2,$3,0*
0 Add four circle primitives for the rounded corners*
1,1,$1+$1,$2,$3*
1,1,$1+$1,$4,$5*
1,1,$1+$1,$6,$7*
1,1,$1+$1,$8,$9*
0 Add four rect primitives between the rounded corners*
20,1,$1+$1,$2,$3,$4,$5,0*
20,1,$1+$1,$4,$5,$6,$7,0*
20,1,$1+$1,$6,$7,$8,$9,0*
20,1,$1+$1,$8,$9,$2,$3,0*%
G04 Aperture macros list end*
%ADD10RoundRect,0.135000X-0.185000X0.135000X-0.185000X-0.135000X0.185000X-0.135000X0.185000X0.135000X0*%
%ADD11RoundRect,0.175000X-0.175000X-0.325000X0.175000X-0.325000X0.175000X0.325000X-0.175000X0.325000X0*%
%ADD12RoundRect,0.150000X-0.200000X-0.150000X0.200000X-0.150000X0.200000X0.150000X-0.200000X0.150000X0*%
%ADD13RoundRect,0.135000X-0.135000X-0.185000X0.135000X-0.185000X0.135000X0.185000X-0.135000X0.185000X0*%
%ADD14RoundRect,0.140000X-0.170000X0.140000X-0.170000X-0.140000X0.170000X-0.140000X0.170000X0.140000X0*%
%ADD15RoundRect,0.140000X0.140000X0.170000X-0.140000X0.170000X-0.140000X-0.170000X0.140000X-0.170000X0*%
%ADD16RoundRect,0.150000X-0.825000X-0.150000X0.825000X-0.150000X0.825000X0.150000X-0.825000X0.150000X0*%
%ADD17RoundRect,0.218750X-0.218750X-0.256250X0.218750X-0.256250X0.218750X0.256250X-0.218750X0.256250X0*%
%ADD18RoundRect,0.150000X-0.150000X-0.425000X0.150000X-0.425000X0.150000X0.425000X-0.150000X0.425000X0*%
%ADD19RoundRect,0.075000X-0.075000X-0.500000X0.075000X-0.500000X0.075000X0.500000X-0.075000X0.500000X0*%
%ADD20O,1.000000X2.100000*%
%ADD21O,1.000000X1.800000*%
%ADD22RoundRect,0.135000X0.135000X0.185000X-0.135000X0.185000X-0.135000X-0.185000X0.135000X-0.185000X0*%
%ADD23RoundRect,0.162500X-0.650000X-0.162500X0.650000X-0.162500X0.650000X0.162500X-0.650000X0.162500X0*%
%ADD24C,2.000000*%
G04 APERTURE END LIST*
D10*
%TO.C,R7*%
X10363200Y18239200D03*
X10363200Y17219200D03*
%TD*%
D11*
%TO.C,D1*%
X5000000Y13210100D03*
D12*
X5000000Y11510100D03*
X7000000Y11510100D03*
X7000000Y13410100D03*
%TD*%
D13*
%TO.C,R6*%
X2637600Y36728400D03*
X3657600Y36728400D03*
%TD*%
D14*
%TO.C,C3*%
X1574800Y21386800D03*
X1574800Y20426800D03*
%TD*%
D15*
%TO.C,C1*%
X9587500Y36728400D03*
X8627500Y36728400D03*
%TD*%
D14*
%TO.C,C2*%
X10363200Y25196800D03*
X10363200Y24236800D03*
%TD*%
D10*
%TO.C,R1*%
X6609600Y28401200D03*
X6609600Y27381200D03*
%TD*%
D16*
%TO.C,U2*%
X3525000Y25196800D03*
X3525000Y23926800D03*
X3525000Y22656800D03*
X3525000Y21386800D03*
X3525000Y20116800D03*
X3525000Y18846800D03*
X3525000Y17576800D03*
X3525000Y16306800D03*
X8475000Y16306800D03*
X8475000Y17576800D03*
X8475000Y18846800D03*
X8475000Y20116800D03*
X8475000Y21386800D03*
X8475000Y22656800D03*
X8475000Y23926800D03*
X8475000Y25196800D03*
%TD*%
D14*
%TO.C,C5*%
X3759200Y13210100D03*
X3759200Y12250100D03*
%TD*%
%TO.C,C4*%
X10363200Y21386800D03*
X10363200Y20426800D03*
%TD*%
D17*
%TO.C,D2*%
X2082600Y38303200D03*
X3657600Y38303200D03*
%TD*%
D18*
%TO.C,J1*%
X2800000Y7439200D03*
X3600000Y7439200D03*
D19*
X4750000Y7439200D03*
X5750000Y7439200D03*
X6250000Y7439200D03*
X7250000Y7439200D03*
D18*
X8400000Y7439200D03*
X9200000Y7439200D03*
X9200000Y7439200D03*
X8400000Y7439200D03*
D19*
X7750000Y7439200D03*
X6750000Y7439200D03*
X5250000Y7439200D03*
X4250000Y7439200D03*
D18*
X3600000Y7439200D03*
X2800000Y7439200D03*
D20*
X1680000Y6864200D03*
D21*
X1680000Y2684200D03*
D20*
X10320000Y6864200D03*
D21*
X10320000Y2684200D03*
%TD*%
D10*
%TO.C,R8*%
X2692400Y13210100D03*
X2692400Y12190100D03*
%TD*%
D22*
%TO.C,R3*%
X4750000Y9550400D03*
X3730000Y9550400D03*
%TD*%
D23*
%TO.C,U1*%
X2412500Y34671000D03*
X2412500Y33401000D03*
X2412500Y32131000D03*
X2412500Y30861000D03*
X9587500Y30861000D03*
X9587500Y32131000D03*
X9587500Y33401000D03*
X9587500Y34671000D03*
%TD*%
D10*
%TO.C,R4*%
X5390400Y28401200D03*
X5390400Y27381200D03*
%TD*%
D13*
%TO.C,R2*%
X7750000Y9550400D03*
X8770000Y9550400D03*
%TD*%
D24*
%TO.C,SW1*%
X8193600Y40895200D03*
X8193600Y47395200D03*
X3693600Y40895200D03*
X3693600Y47395200D03*
%TD*%
M02*
